<?xml version="1.0" encoding="utf-8"?>
<!-- Generator: Adobe Illustrator 19.0.0, SVG Export Plug-In . SVG Version: 6.00 Build 0)  -->
<!DOCTYPE svg PUBLIC "-//W3C//DTD SVG 1.1//EN" "http://www.w3.org/Graphics/SVG/1.1/DTD/svg11.dtd">
<svg version="1.1" id="Calque_1" xmlns="http://www.w3.org/2000/svg" xmlns:xlink="http://www.w3.org/1999/xlink" x="0px" y="0px"
	 viewBox="0 0 50.1 83" enable-background="new 0 0 50.1 83" xml:space="preserve">
<g>
	
		<linearGradient id="SVGID_1_" gradientUnits="userSpaceOnUse" x1="149.8818" y1="79.7311" x2="198.8448" y2="79.7311" gradientTransform="matrix(-0.9777 0.2099 -0.2099 -0.9777 211.3714 71.7487)">
		<stop  offset="0" style="stop-color:#45C2D2"/>
		<stop  offset="0.4821" style="stop-color:#69C5B6"/>
		<stop  offset="1" style="stop-color:#3FBBD8"/>
	</linearGradient>
	<path fill="url(#SVGID_1_)" d="M49.9,34.1c-0.3-2.8-1.4-4-2.7-4.6c0-0.2,0-0.3,0-0.5c0-3.5-0.3-8.6-1-11.9
		c-0.1-0.9-0.4-1.8-0.6-2.7c-1.2-4.1-3.8-7.7-7.3-10.3C34.7,1.4,29.6,0,25.1,0C20.6,0,15.5,1.4,12,4.1c-3.5,2.6-6.1,6.2-7.3,10.3
		c-0.3,0.9-0.5,1.8-0.6,2.7C3.4,20.4,3,25.5,3,29c0,0.1,0,0.3,0,0.5c-1.3,0.5-2.5,1.8-2.8,4.6c-0.2,2.2,0.7,4,1.1,4.8
		c0.4,1.9,1.6,4,3.6,4.4c0.2,0.9,0.5,1.8,0.9,2.7c0,0,0,0.1,0.1,0.2l0,0.1c1.9,4.9,5,8.9,8.8,11.4c2.9,1.9,7,2.9,10.3,2.9
		c3.3,0,7.4-1,10.3-2.9c3.9-2.5,7-6.6,8.9-11.5c0,0,0.1-0.2,0.1-0.3c0.3-0.9,0.6-1.7,0.9-2.7c1.9-0.4,3.1-2.4,3.5-4.3
		C49.2,38.1,50.1,36.2,49.9,34.1L49.9,34.1z M11.8,19.7c9.6,0.1,17.1-4.2,17.1-4.2s-6.2,4.3-15.5,4.8C12.9,20.1,12.4,19.9,11.8,19.7
		L11.8,19.7z M9.8,18.3c9.6,0.1,17.1-4.2,17.1-4.2s-6.2,4.3-15.5,4.8C10.9,18.7,10.3,18.5,9.8,18.3L9.8,18.3z M47,38.2
		c0,0-0.6,3.2-2.4,3.2c-0.3,0-0.5,0-0.8-0.1c-0.1,0.4-0.2,0.8-0.3,1.1c-0.2,1-0.5,1.9-0.9,2.8c0,0.1-0.1,0.2-0.1,0.2
		c-1.8,4.5-4.6,8.3-8.2,10.5c-2.5,1.7-6.2,2.6-9.3,2.6c-3.1,0-6.8-0.9-9.3-2.6c-3.5-2.3-6.4-6-8.1-10.5c0-0.1-0.1-0.2-0.1-0.2
		c-0.3-0.9-0.6-1.9-0.9-2.9c-0.1-0.4-0.2-0.8-0.3-1.1c-0.3,0.1-0.5,0.1-0.9,0.1c-1.8,0-2.4-3.2-2.4-3.2s-1.2-1.9-1-3.9
		c0.2-1.9,0.8-3,2.2-3.2L6,33.2c0,0,0-1.6,0.8-5.1s2.4-3,2.8-5.7c0.3-2-1.5-4.4-2.4-5.4c3-2.7,7.1-6.3,9-7.2c3-1.5-19.7,8-8.7,9.2
		c7.6,7.8,35.2-7.7,36.3-4.1c0.1,0.5,0.2,0.9,0.3,1.3c-0.4,0.4-3.6,3.3-3.4,5.8c0.2,2.7,1.9,2.4,2.4,5.9c0.6,3.5,0.5,5.1,0.5,5.1
		l1.7-2c1.8,0,2.4,1.2,2.6,3.2C48.2,36.3,47,38.2,47,38.2L47,38.2z"/>
	<linearGradient id="SVGID_2_" gradientUnits="userSpaceOnUse" x1="14.3215" y1="31.0441" x2="17.2247" y2="31.0441">
		<stop  offset="0" style="stop-color:#45C2D2"/>
		<stop  offset="0.4821" style="stop-color:#69C5B6"/>
		<stop  offset="1" style="stop-color:#3FBBD8"/>
	</linearGradient>
	<path fill="url(#SVGID_2_)" d="M15.8,29.6c-0.8,0-1.5,0.6-1.5,1.5c0,0.8,0.7,1.5,1.5,1.4c0.8,0,1.5-0.6,1.5-1.4
		C17.2,30.2,16.6,29.6,15.8,29.6"/>
	<linearGradient id="SVGID_3_" gradientUnits="userSpaceOnUse" x1="32.8983" y1="31.0456" x2="35.8015" y2="31.0456">
		<stop  offset="0" style="stop-color:#45C2D2"/>
		<stop  offset="0.4821" style="stop-color:#69C5B6"/>
		<stop  offset="1" style="stop-color:#3FBBD8"/>
	</linearGradient>
	<path fill="url(#SVGID_3_)" d="M34.3,29.6c-0.8,0-1.4,0.6-1.4,1.5c0,0.8,0.7,1.5,1.5,1.5c0.8,0,1.5-0.6,1.5-1.4
		C35.8,30.2,35.1,29.6,34.3,29.6"/>
	<linearGradient id="SVGID_4_" gradientUnits="userSpaceOnUse" x1="11.5791" y1="28.7262" x2="20.3677" y2="28.7262">
		<stop  offset="0" style="stop-color:#45C2D2"/>
		<stop  offset="0.4821" style="stop-color:#69C5B6"/>
		<stop  offset="1" style="stop-color:#3FBBD8"/>
	</linearGradient>
	<path fill="url(#SVGID_4_)" d="M20.1,30c0.3-0.3,0.4-0.8,0.1-1.1c-0.9-1.1-2.5-1.7-4.3-1.7c-1.6,0-3.2,0.6-4.1,1.5
		c-0.3,0.3-0.3,0.8,0,1.1c0.3,0.3,0.8,0.3,1.1,0c0.6-0.6,1.8-1,3-1c1.3,0,2.4,0.5,3.1,1.2c0.2,0.2,0.4,0.3,0.6,0.3
		C19.8,30.2,20,30.2,20.1,30"/>
	<linearGradient id="SVGID_5_" gradientUnits="userSpaceOnUse" x1="29.7804" y1="28.7262" x2="38.569" y2="28.7262">
		<stop  offset="0" style="stop-color:#45C2D2"/>
		<stop  offset="0.4821" style="stop-color:#69C5B6"/>
		<stop  offset="1" style="stop-color:#3FBBD8"/>
	</linearGradient>
	<path fill="url(#SVGID_5_)" d="M38.3,30c0.3-0.3,0.4-0.8,0.1-1.1c-0.9-1.1-2.5-1.7-4.3-1.7c-1.6,0-3.2,0.6-4.1,1.5
		c-0.3,0.3-0.3,0.8,0,1.1c0.3,0.3,0.8,0.3,1.1,0c0.6-0.6,1.8-1,3-1c1.3,0,2.4,0.5,3.1,1.2c0.2,0.2,0.4,0.3,0.6,0.3
		C38,30.2,38.1,30.2,38.3,30"/>
	<linearGradient id="SVGID_6_" gradientUnits="userSpaceOnUse" x1="21.5081" y1="39.4177" x2="28.6476" y2="39.4177">
		<stop  offset="0" style="stop-color:#45C2D2"/>
		<stop  offset="0.4821" style="stop-color:#69C5B6"/>
		<stop  offset="1" style="stop-color:#3FBBD8"/>
	</linearGradient>
	<path fill="url(#SVGID_6_)" d="M28.2,40.3c0.6-1.1,0.5-2.6-0.2-3.6c-0.2-0.3-0.6-0.4-0.9-0.2c-0.3,0.2-0.4,0.6-0.2,0.9
		c0.4,0.5,0.5,1.4,0.1,2.2c-0.3,0.6-1.6,2-3.5,1.3c-0.8-0.5-1.1-0.7-1.1-0.7c-0.3-0.2-0.7-0.2-0.9,0.1s-0.2,0.7,0.1,0.9
		c0,0,0.3,0.2,1.2,0.8c0,0,0.1,0,0.1,0.1c0.5,0.2,1.1,0.3,1.5,0.3C26.4,42.5,27.7,41.2,28.2,40.3"/>
	<linearGradient id="SVGID_7_" gradientUnits="userSpaceOnUse" x1="13.6386" y1="63.4646" x2="36.3432" y2="63.4646">
		<stop  offset="0" style="stop-color:#45C2D2"/>
		<stop  offset="0.4821" style="stop-color:#69C5B6"/>
		<stop  offset="1" style="stop-color:#3FBBD8"/>
	</linearGradient>
	<path fill="url(#SVGID_7_)" d="M35.1,58.3c-1.1,0-6.2,2.4-7.9,3.2c-0.5-0.3-1.1-0.5-1.7-0.5h-1c-0.6,0-1.2,0.2-1.7,0.5
		c-1.8-0.8-6.8-3.2-7.9-3.2c-1.3,0-1.6,9.7-0.5,10.3c0.8,0.4,5.3-1.5,7.6-2.5c0.6,0.7,1.5,1.2,2.5,1.3h1c1,0,2-0.5,2.5-1.3
		c2.3,1,6.9,2.9,7.7,2.6C36.8,68.1,36.5,58.3,35.1,58.3"/>
	<linearGradient id="SVGID_8_" gradientUnits="userSpaceOnUse" x1="13.9134" y1="47.3033" x2="36.2497" y2="47.3033">
		<stop  offset="0" style="stop-color:#45C2D2"/>
		<stop  offset="0.4821" style="stop-color:#69C5B6"/>
		<stop  offset="1" style="stop-color:#3FBBD8"/>
	</linearGradient>
	<path fill="url(#SVGID_8_)" d="M25.1,47.6c-1,0-1.2,2.2-4,3.1c-4.6,1.5-7.1-3.3-7.1-3.3c3.5,2.7,5.1-0.6,5.9-1.7
		c2.6-3.7,5.2-1.1,5.3-1c0.1-0.1,2.7-2.7,5.3,1c0.8,1.1,2.4,4.4,5.9,1.7c0,0-2.5,4.8-7.1,3.3C26.3,49.8,26.1,47.6,25.1,47.6
		L25.1,47.6L25.1,47.6z"/>
	<linearGradient id="SVGID_9_" gradientUnits="userSpaceOnUse" x1="21.2908" y1="53.5627" x2="28.8723" y2="53.5627">
		<stop  offset="0" style="stop-color:#45C2D2"/>
		<stop  offset="0.4821" style="stop-color:#69C5B6"/>
		<stop  offset="1" style="stop-color:#3FBBD8"/>
	</linearGradient>
	<path fill="url(#SVGID_9_)" d="M21.3,52.7c0,0,1.5,0.4,3.8,0.4c2.3,0,3.8-0.4,3.8-0.4s-1.1,1.8-3.8,1.8
		C22.4,54.4,21.3,52.7,21.3,52.7"/>
	<g>
		<linearGradient id="SVGID_10_" gradientUnits="userSpaceOnUse" x1="0" y1="78.5664" x2="7.2363" y2="78.5664">
			<stop  offset="0" style="stop-color:#45C2D2"/>
			<stop  offset="0.4821" style="stop-color:#69C5B6"/>
			<stop  offset="1" style="stop-color:#3FBBD8"/>
		</linearGradient>
		<path fill="url(#SVGID_10_)" d="M1.7,75.2v2.5h3.8v-2.5c0-0.4,0.1-0.6,0.2-0.8s0.4-0.3,0.6-0.3c0.3,0,0.5,0.1,0.6,0.3
			s0.2,0.4,0.2,0.8v6.8c0,0.4-0.1,0.6-0.2,0.8S6.6,83,6.4,83c-0.3,0-0.5-0.1-0.6-0.3s-0.2-0.4-0.2-0.8v-2.9H1.7v2.9
			c0,0.4-0.1,0.6-0.2,0.8S1.1,83,0.9,83c-0.3,0-0.5-0.1-0.6-0.3S0,82.3,0,81.9v-6.8c0-0.4,0.1-0.6,0.2-0.8s0.4-0.3,0.6-0.3
			c0.3,0,0.5,0.1,0.6,0.3S1.7,74.8,1.7,75.2z"/>
		<linearGradient id="SVGID_11_" gradientUnits="userSpaceOnUse" x1="8.9941" y1="78.6016" x2="10.5938" y2="78.6016">
			<stop  offset="0" style="stop-color:#45C2D2"/>
			<stop  offset="0.4821" style="stop-color:#69C5B6"/>
			<stop  offset="1" style="stop-color:#3FBBD8"/>
		</linearGradient>
		<path fill="url(#SVGID_11_)" d="M9.8,75.8c-0.2,0-0.4-0.1-0.6-0.2S9,75.2,9,75c0-0.2,0.1-0.4,0.2-0.6s0.4-0.2,0.6-0.2
			c0.2,0,0.4,0.1,0.6,0.2s0.2,0.3,0.2,0.6c0,0.2-0.1,0.4-0.2,0.6S10,75.8,9.8,75.8z M10.6,77.4V82c0,0.3-0.1,0.6-0.2,0.7
			S10,83,9.8,83s-0.4-0.1-0.6-0.3S9,82.3,9,82v-4.6c0-0.3,0.1-0.6,0.2-0.7s0.3-0.2,0.6-0.2s0.4,0.1,0.6,0.2S10.6,77.1,10.6,77.4z"/>
		<linearGradient id="SVGID_12_" gradientUnits="userSpaceOnUse" x1="15.3457" y1="78.5664" x2="22.4824" y2="78.5664">
			<stop  offset="0" style="stop-color:#45C2D2"/>
			<stop  offset="0.4821" style="stop-color:#69C5B6"/>
			<stop  offset="1" style="stop-color:#3FBBD8"/>
		</linearGradient>
		<path fill="url(#SVGID_12_)" d="M19,82.9h-2.6c-0.4,0-0.6-0.1-0.8-0.3s-0.2-0.4-0.2-0.8v-6.5c0-0.4,0.1-0.7,0.2-0.8
			s0.4-0.2,0.8-0.2h2.8c0.4,0,0.8,0,1.1,0.1s0.6,0.1,0.8,0.3c0.2,0.1,0.4,0.3,0.5,0.5s0.3,0.4,0.4,0.6s0.1,0.5,0.1,0.7
			c0,0.9-0.4,1.5-1.3,1.9c1.1,0.4,1.7,1.1,1.7,2.1c0,0.5-0.1,0.9-0.4,1.3s-0.6,0.7-1,0.9c-0.3,0.1-0.6,0.2-0.9,0.2
			S19.5,82.9,19,82.9z M17.1,75.6v2.2h1.6c0.4,0,0.8,0,1-0.1s0.4-0.2,0.5-0.5c0.1-0.2,0.1-0.3,0.1-0.6c0-0.4-0.2-0.7-0.5-0.9
			s-0.8-0.2-1.4-0.2H17.1z M18.9,79h-1.8v2.5H19c1.2,0,1.8-0.4,1.8-1.3c0-0.4-0.2-0.7-0.5-0.9S19.5,79,18.9,79z"/>
		<linearGradient id="SVGID_13_" gradientUnits="userSpaceOnUse" x1="23.8301" y1="79.7559" x2="29.5312" y2="79.7559">
			<stop  offset="0" style="stop-color:#45C2D2"/>
			<stop  offset="0.4821" style="stop-color:#69C5B6"/>
			<stop  offset="1" style="stop-color:#3FBBD8"/>
		</linearGradient>
		<path fill="url(#SVGID_13_)" d="M28,82.1v-0.2c-0.2,0.2-0.4,0.4-0.6,0.6s-0.4,0.3-0.7,0.4S26.2,83,25.9,83c-0.4,0-0.7-0.1-1-0.2
			s-0.5-0.4-0.7-0.7c-0.2-0.3-0.3-0.8-0.3-1.5v-3.2c0-0.3,0.1-0.6,0.2-0.7s0.3-0.2,0.6-0.2c0.2,0,0.4,0.1,0.6,0.2s0.2,0.4,0.2,0.7
			V80c0,0.4,0,0.7,0.1,0.9s0.2,0.4,0.3,0.6s0.4,0.2,0.7,0.2c0.3,0,0.5-0.1,0.8-0.2s0.4-0.4,0.5-0.6c0.1-0.2,0.1-0.7,0.1-1.5v-1.9
			c0-0.3,0.1-0.6,0.2-0.7s0.3-0.2,0.6-0.2s0.4,0.1,0.6,0.2s0.2,0.4,0.2,0.7v4.6c0,0.3-0.1,0.5-0.2,0.7S29,83,28.8,83
			s-0.4-0.1-0.5-0.2S28,82.4,28,82.1z"/>
		<linearGradient id="SVGID_14_" gradientUnits="userSpaceOnUse" x1="30.4688" y1="78.6689" x2="34.7871" y2="78.6689">
			<stop  offset="0" style="stop-color:#45C2D2"/>
			<stop  offset="0.4821" style="stop-color:#69C5B6"/>
			<stop  offset="1" style="stop-color:#3FBBD8"/>
		</linearGradient>
		<path fill="url(#SVGID_14_)" d="M31.2,76.6h0.2v-1c0-0.3,0-0.5,0-0.6s0.1-0.3,0.1-0.4c0.1-0.1,0.2-0.2,0.3-0.3s0.2-0.1,0.4-0.1
			c0.2,0,0.4,0.1,0.6,0.2c0.1,0.1,0.2,0.2,0.2,0.4s0,0.4,0,0.6v1.1h0.6c0.2,0,0.4,0.1,0.5,0.2s0.2,0.2,0.2,0.4
			c0,0.2-0.1,0.4-0.3,0.5s-0.4,0.1-0.7,0.1H33v2.9c0,0.2,0,0.4,0,0.6s0.1,0.2,0.1,0.3s0.2,0.1,0.4,0.1c0.1,0,0.2,0,0.4,0
			s0.3,0,0.4,0c0.1,0,0.2,0.1,0.3,0.2s0.2,0.2,0.2,0.4c0,0.3-0.1,0.5-0.4,0.6S33.7,83,33.2,83c-0.5,0-0.9-0.1-1.1-0.3
			s-0.4-0.4-0.5-0.7s-0.1-0.7-0.1-1.2v-3.1h-0.2c-0.2,0-0.4-0.1-0.5-0.2s-0.2-0.2-0.2-0.4s0.1-0.3,0.2-0.4S31,76.6,31.2,76.6z"/>
		<linearGradient id="SVGID_15_" gradientUnits="userSpaceOnUse" x1="35.373" y1="78.5664" x2="36.9727" y2="78.5664">
			<stop  offset="0" style="stop-color:#45C2D2"/>
			<stop  offset="0.4821" style="stop-color:#69C5B6"/>
			<stop  offset="1" style="stop-color:#3FBBD8"/>
		</linearGradient>
		<path fill="url(#SVGID_15_)" d="M35.4,82v-6.9c0-0.3,0.1-0.6,0.2-0.7s0.3-0.2,0.6-0.2s0.4,0.1,0.6,0.2s0.2,0.4,0.2,0.7V82
			c0,0.3-0.1,0.6-0.2,0.7S36.4,83,36.2,83c-0.2,0-0.4-0.1-0.6-0.3S35.4,82.3,35.4,82z"/>
		<linearGradient id="SVGID_16_" gradientUnits="userSpaceOnUse" x1="38.3262" y1="79.75" x2="44.4082" y2="79.75">
			<stop  offset="0" style="stop-color:#45C2D2"/>
			<stop  offset="0.4821" style="stop-color:#69C5B6"/>
			<stop  offset="1" style="stop-color:#3FBBD8"/>
		</linearGradient>
		<path fill="url(#SVGID_16_)" d="M43.1,80.1H40c0,0.4,0.1,0.7,0.2,1s0.3,0.5,0.6,0.6s0.5,0.2,0.8,0.2c0.2,0,0.4,0,0.5-0.1
			s0.3-0.1,0.5-0.2s0.3-0.2,0.4-0.3s0.3-0.3,0.5-0.4c0.1-0.1,0.2-0.1,0.4-0.1c0.2,0,0.3,0,0.4,0.1s0.2,0.2,0.2,0.4
			c0,0.1-0.1,0.3-0.2,0.5s-0.3,0.4-0.5,0.6s-0.5,0.3-0.9,0.4S42,83,41.6,83c-1,0-1.8-0.3-2.4-0.9s-0.9-1.4-0.9-2.4
			c0-0.5,0.1-0.9,0.2-1.3s0.3-0.8,0.6-1s0.6-0.5,1-0.7s0.8-0.2,1.3-0.2c0.6,0,1.2,0.1,1.6,0.4s0.8,0.6,1,1s0.3,0.8,0.3,1.3
			c0,0.4-0.1,0.7-0.3,0.8S43.5,80.1,43.1,80.1z M40,79.2h2.9c0-0.5-0.2-1-0.4-1.2s-0.6-0.4-1-0.4c-0.4,0-0.7,0.1-1,0.4
			S40,78.7,40,79.2z"/>
		<linearGradient id="SVGID_17_" gradientUnits="userSpaceOnUse" x1="45.7441" y1="79.7559" x2="50.1387" y2="79.7559">
			<stop  offset="0" style="stop-color:#45C2D2"/>
			<stop  offset="0.4821" style="stop-color:#69C5B6"/>
			<stop  offset="1" style="stop-color:#3FBBD8"/>
		</linearGradient>
		<path fill="url(#SVGID_17_)" d="M47.3,80.7V82c0,0.3-0.1,0.6-0.2,0.7S46.8,83,46.5,83c-0.2,0-0.4-0.1-0.6-0.2s-0.2-0.4-0.2-0.7
			v-4.5c0-0.7,0.3-1.1,0.8-1.1c0.3,0,0.5,0.1,0.6,0.3s0.2,0.4,0.2,0.7c0.2-0.3,0.4-0.6,0.6-0.7s0.5-0.3,0.8-0.3s0.7,0.1,1,0.3
			s0.5,0.4,0.5,0.7c0,0.2-0.1,0.4-0.2,0.5s-0.3,0.2-0.4,0.2c-0.1,0-0.2,0-0.4-0.1s-0.4-0.1-0.6-0.1c-0.2,0-0.4,0.1-0.6,0.2
			s-0.3,0.3-0.3,0.5s-0.1,0.5-0.2,0.9S47.3,80.2,47.3,80.7z"/>
	</g>
</g>
</svg>
